# xmcd
#
# Track frame offsets: 
#        150
#        33278
#        48855
#        61077
#        78611
#        88920
#        103064
#        107111
#        121664
#        143231
#        155580
#        166702
#        175927
#        186347
#        195574
#        211509
#        228419
#        236046
#        243926
#        257005
#        275933
#        303840
#
# Disc length: 4285 seconds
#
# Revision: 0
# Processed by: cddbd v1.5.2PL0 Copyright (c) Steve Scherf et al.
# Submitted via: ExactAudioCopy v0.95b3
#
DISCID=2810bb16
DTITLE=The Beatles  - The Beatles Deluxe - Disc 03 - mono  PC-133  FLA
DTITLE=C
DYEAR=1900
DGENRE=
TTITLE0=Hey Jude (mono)
TTITLE1=Revolution (mono)
TTITLE2=Back In The USSR (mono)
TTITLE3=Dear Prudence (mono)
TTITLE4=Glass Onion (mono)
TTITLE5=Ob-La-Di Ob-La-Da (mono)
TTITLE6=Wild Honey Pie (mono)
TTITLE7=The Continuing Story Of Bungalow Bill (mono)
TTITLE8=While My Guitar Gently Weeps (mono)
TTITLE9=Happiness Is A Warm Gun (mono)
TTITLE10=Martha My Dear (mono)
TTITLE11=I'm So Tired (mono)
TTITLE12=Blackbird (mono)
TTITLE13=Piggies (mono)
TTITLE14=Rocky Raccoon (mono)
TTITLE15=Don't Pass Me By (mono)
TTITLE16=Why Don't We Do It In The Road (mono)
TTITLE17=I Will (mono)
TTITLE18=Julia (mono)
TTITLE19=Not Guilty (mono)
TTITLE20=What's The New Mary Jane (Ant)
TTITLE21=Sour Milk Sea (mono outfake)-fixed
EXTD=
EXTT0=
EXTT1=
EXTT2=
EXTT3=
EXTT4=
EXTT5=
EXTT6=
EXTT7=
EXTT8=
EXTT9=
EXTT10=
EXTT11=
EXTT12=
EXTT13=
EXTT14=
EXTT15=
EXTT16=
EXTT17=
EXTT18=
EXTT19=
EXTT20=
EXTT21=
PLAYORDER=
